<svg xmlns="http://www.w3.org/2000/svg" width="232.36" height="35" viewBox="0 0 232.36 35"><rect class="svg__rect" x="0" y="0" width="97.71000000000001" height="35" fill="#419B5A"/><rect class="svg__rect" x="95.71000000000001" y="0" width="136.65" height="35" fill="#5593C7"/><path class="svg__text" d="M17.33 22L14.22 22L14.22 13.47L17.14 13.47Q18.59 13.47 19.34 14.05Q20.10 14.63 20.10 15.78L20.10 15.78Q20.10 16.36 19.78 16.83Q19.47 17.30 18.86 17.56L18.86 17.56Q19.55 17.75 19.93 18.26Q20.31 18.78 20.31 19.51L20.31 19.51Q20.31 20.71 19.53 21.36Q18.76 22 17.33 22L17.33 22ZM15.70 18.15L15.70 20.82L17.35 20.82Q18.04 20.82 18.44 20.47Q18.83 20.13 18.83 19.51L18.83 19.51Q18.83 18.18 17.47 18.15L17.47 18.15L15.70 18.15ZM15.70 14.66L15.70 17.06L17.15 17.06Q17.84 17.06 18.23 16.75Q18.62 16.43 18.62 15.86L18.62 15.86Q18.62 15.23 18.26 14.95Q17.90 14.66 17.14 14.66L17.14 14.66L15.70 14.66ZM24.64 19.16L24.64 19.16L24.64 13.47L26.12 13.47L26.12 19.18Q26.12 20.03 26.55 20.48Q26.98 20.93 27.83 20.93L27.83 20.93Q29.54 20.93 29.54 19.13L29.54 19.13L29.54 13.47L31.02 13.47L31.02 19.17Q31.02 20.53 30.15 21.32Q29.28 22.12 27.83 22.12L27.83 22.12Q26.36 22.12 25.50 21.33Q24.64 20.55 24.64 19.16ZM37.15 22L35.67 22L35.67 13.47L37.15 13.47L37.15 22ZM47.32 22L41.96 22L41.96 13.47L43.44 13.47L43.44 20.82L47.32 20.82L47.32 22ZM53.12 14.66L50.49 14.66L50.49 13.47L57.25 13.47L57.25 14.66L54.59 14.66L54.59 22L53.12 22L53.12 14.66ZM70.10 22L66.99 22L66.99 13.47L69.91 13.47Q71.36 13.47 72.11 14.05Q72.87 14.63 72.87 15.78L72.87 15.78Q72.87 16.36 72.55 16.83Q72.24 17.30 71.63 17.56L71.63 17.56Q72.32 17.75 72.70 18.26Q73.07 18.78 73.07 19.51L73.07 19.51Q73.07 20.71 72.30 21.36Q71.53 22 70.10 22L70.10 22ZM68.47 18.15L68.47 20.82L70.12 20.82Q70.81 20.82 71.21 20.47Q71.60 20.13 71.60 19.51L71.60 19.51Q71.60 18.18 70.24 18.15L70.24 18.15L68.47 18.15ZM68.47 14.66L68.47 17.06L69.92 17.06Q70.61 17.06 71.00 16.75Q71.39 16.43 71.39 15.86L71.39 15.86Q71.39 15.23 71.03 14.95Q70.67 14.66 69.91 14.66L69.91 14.66L68.47 14.66ZM79.58 18.86L76.72 13.47L78.37 13.47L80.33 17.51L82.29 13.47L83.93 13.47L81.07 18.86L81.07 22L79.58 22L79.58 18.86Z" fill="#FFFFFF"/><path class="svg__text" d="M109.47 17.80L109.47 17.80Q109.47 16.54 110.07 15.54Q110.67 14.55 111.72 13.99Q112.77 13.43 114.09 13.43L114.09 13.43Q115.24 13.43 116.16 13.84Q117.09 14.25 117.70 15.02L117.70 15.02L116.19 16.39Q115.38 15.40 114.21 15.40L114.21 15.40Q113.52 15.40 112.99 15.70Q112.46 16 112.16 16.54Q111.87 17.09 111.87 17.80L111.87 17.80Q111.87 18.51 112.16 19.05Q112.46 19.60 112.99 19.90Q113.52 20.20 114.21 20.20L114.21 20.20Q115.38 20.20 116.19 19.22L116.19 19.22L117.70 20.58Q117.09 21.35 116.17 21.76Q115.24 22.17 114.09 22.17L114.09 22.17Q112.77 22.17 111.72 21.61Q110.67 21.05 110.07 20.05Q109.47 19.06 109.47 17.80ZM123.66 22L121.23 22L124.94 13.60L127.28 13.60L131.00 22L128.53 22L127.87 20.37L124.32 20.37L123.66 22ZM126.09 15.93L125.01 18.61L127.17 18.61L126.09 15.93ZM139.12 22L135.15 22L135.15 13.60L139.12 13.60Q140.51 13.60 141.57 14.12Q142.64 14.63 143.23 15.58Q143.82 16.53 143.82 17.80L143.82 17.80Q143.82 19.07 143.23 20.02Q142.64 20.97 141.57 21.48Q140.51 22 139.12 22L139.12 22ZM137.53 15.50L137.53 20.10L139.03 20.10Q140.11 20.10 140.76 19.49Q141.42 18.88 141.42 17.80L141.42 17.80Q141.42 16.72 140.76 16.11Q140.11 15.50 139.03 15.50L139.03 15.50L137.53 15.50ZM148.48 18.26L148.48 18.26L148.48 13.60L150.85 13.60L150.85 18.19Q150.85 20.20 152.45 20.20L152.45 20.20Q154.03 20.20 154.03 18.19L154.03 18.19L154.03 13.60L156.37 13.60L156.37 18.26Q156.37 20.13 155.33 21.15Q154.29 22.17 152.43 22.17L152.43 22.17Q150.55 22.17 149.51 21.15Q148.48 20.13 148.48 18.26ZM161.03 17.80L161.03 17.80Q161.03 16.54 161.63 15.54Q162.23 14.55 163.28 13.99Q164.33 13.43 165.65 13.43L165.65 13.43Q166.80 13.43 167.73 13.84Q168.65 14.25 169.27 15.02L169.27 15.02L167.75 16.39Q166.94 15.40 165.77 15.40L165.77 15.40Q165.09 15.40 164.55 15.70Q164.02 16 163.73 16.54Q163.43 17.09 163.43 17.80L163.43 17.80Q163.43 18.51 163.73 19.05Q164.02 19.60 164.55 19.90Q165.09 20.20 165.77 20.20L165.77 20.20Q166.94 20.20 167.75 19.22L167.75 19.22L169.27 20.58Q168.66 21.35 167.73 21.76Q166.80 22.17 165.65 22.17L165.65 22.17Q164.33 22.17 163.28 21.61Q162.23 21.05 161.63 20.05Q161.03 19.06 161.03 17.80ZM173.37 17.80L173.37 17.80Q173.37 16.55 173.98 15.55Q174.58 14.56 175.64 14.00Q176.71 13.43 178.04 13.43L178.04 13.43Q179.37 13.43 180.43 14.00Q181.49 14.56 182.10 15.55Q182.71 16.55 182.71 17.80L182.71 17.80Q182.71 19.05 182.10 20.04Q181.49 21.04 180.43 21.60Q179.37 22.17 178.04 22.17L178.04 22.17Q176.71 22.17 175.64 21.60Q174.58 21.04 173.98 20.04Q173.37 19.05 173.37 17.80ZM175.77 17.80L175.77 17.80Q175.77 18.51 176.07 19.05Q176.37 19.60 176.89 19.90Q177.40 20.20 178.04 20.20L178.04 20.20Q178.68 20.20 179.19 19.90Q179.71 19.60 180.01 19.05Q180.30 18.51 180.30 17.80L180.30 17.80Q180.30 17.09 180.01 16.54Q179.71 16 179.19 15.70Q178.68 15.40 178.04 15.40L178.04 15.40Q177.40 15.40 176.89 15.70Q176.37 16 176.07 16.54Q175.77 17.09 175.77 17.80ZM191.41 22L187.44 22L187.44 13.60L191.41 13.60Q192.79 13.60 193.86 14.12Q194.92 14.63 195.51 15.58Q196.10 16.53 196.10 17.80L196.10 17.80Q196.10 19.07 195.51 20.02Q194.92 20.97 193.86 21.48Q192.79 22 191.41 22L191.41 22ZM189.81 15.50L189.81 20.10L191.31 20.10Q192.39 20.10 193.05 19.49Q193.70 18.88 193.70 17.80L193.70 17.80Q193.70 16.72 193.05 16.11Q192.39 15.50 191.31 15.50L191.31 15.50L189.81 15.50ZM207.57 22L200.83 22L200.83 13.60L207.42 13.60L207.42 15.44L203.19 15.44L203.19 16.85L206.92 16.85L206.92 18.63L203.19 18.63L203.19 20.17L207.57 20.17L207.57 22ZM214.76 22L212.38 22L212.38 13.60L216.22 13.60Q217.36 13.60 218.20 13.98Q219.04 14.35 219.50 15.06Q219.95 15.76 219.95 16.71L219.95 16.71Q219.95 17.62 219.53 18.30Q219.10 18.98 218.31 19.36L218.31 19.36L220.12 22L217.58 22L216.05 19.77L214.76 19.77L214.76 22ZM214.76 15.47L214.76 17.93L216.08 17.93Q216.81 17.93 217.18 17.61Q217.55 17.29 217.55 16.71L217.55 16.71Q217.55 16.12 217.18 15.79Q216.81 15.47 216.08 15.47L216.08 15.47L214.76 15.47Z" fill="#FFFFFF" x="108.71000000000001"/></svg>