<svg xmlns="http://www.w3.org/2000/svg" width="214.15" height="35" viewBox="0 0 214.15 35"><rect class="svg__rect" x="0" y="0" width="131.39" height="35" fill="#31C4F3"/><rect class="svg__rect" x="129.39" y="0" width="84.76000000000002" height="35" fill="#2A7AE4"/><path class="svg__text" d="M16.67 22L14.22 22L14.22 13.47L16.74 13.47Q17.87 13.47 18.74 13.97Q19.62 14.48 20.10 15.40Q20.58 16.33 20.58 17.52L20.58 17.52L20.58 17.95Q20.58 19.16 20.10 20.08Q19.61 21.00 18.72 21.50Q17.83 22 16.67 22L16.67 22ZM15.70 14.66L15.70 20.82L16.67 20.82Q17.83 20.82 18.46 20.09Q19.08 19.36 19.09 17.99L19.09 17.99L19.09 17.52Q19.09 16.13 18.49 15.40Q17.89 14.66 16.74 14.66L16.74 14.66L15.70 14.66ZM30.62 22L25.05 22L25.05 13.47L30.58 13.47L30.58 14.66L26.53 14.66L26.53 17.02L30.03 17.02L30.03 18.19L26.53 18.19L26.53 20.82L30.62 20.82L30.62 22ZM34.39 19.42L34.39 19.42L35.87 19.42Q35.87 20.15 36.35 20.55Q36.83 20.95 37.73 20.95L37.73 20.95Q38.50 20.95 38.89 20.63Q39.28 20.32 39.28 19.80L39.28 19.80Q39.28 19.24 38.88 18.94Q38.49 18.63 37.46 18.32Q36.42 18.01 35.81 17.63L35.81 17.63Q34.65 16.90 34.65 15.72L34.65 15.72Q34.65 14.69 35.49 14.02Q36.33 13.35 37.67 13.35L37.67 13.35Q38.56 13.35 39.26 13.68Q39.96 14.01 40.36 14.61Q40.75 15.22 40.75 15.96L40.75 15.96L39.28 15.96Q39.28 15.29 38.86 14.91Q38.44 14.54 37.66 14.54L37.66 14.54Q36.93 14.54 36.53 14.85Q36.13 15.16 36.13 15.71L36.13 15.71Q36.13 16.18 36.56 16.50Q37.00 16.81 37.99 17.10Q38.99 17.40 39.59 17.78Q40.20 18.16 40.48 18.65Q40.76 19.13 40.76 19.79L40.76 19.79Q40.76 20.86 39.94 21.49Q39.13 22.12 37.73 22.12L37.73 22.12Q36.80 22.12 36.02 21.77Q35.25 21.43 34.82 20.83Q34.39 20.22 34.39 19.42ZM46.61 22L45.14 22L45.14 13.47L46.61 13.47L46.61 22ZM51.18 18.13L51.18 18.13L51.18 17.46Q51.18 15.53 52.10 14.44Q53.03 13.35 54.69 13.35L54.69 13.35Q56.11 13.35 56.95 14.05Q57.79 14.76 57.96 16.08L57.96 16.08L56.50 16.08Q56.26 14.54 54.72 14.54L54.72 14.54Q53.72 14.54 53.20 15.26Q52.68 15.98 52.67 17.37L52.67 17.37L52.67 18.02Q52.67 19.40 53.25 20.17Q53.83 20.93 54.87 20.93L54.87 20.93Q56.01 20.93 56.49 20.42L56.49 20.42L56.49 18.75L54.73 18.75L54.73 17.62L57.96 17.62L57.96 20.89Q57.50 21.50 56.68 21.81Q55.86 22.12 54.82 22.12L54.82 22.12Q53.74 22.12 52.92 21.63Q52.09 21.14 51.64 20.24Q51.20 19.33 51.18 18.13ZM64.06 22L62.58 22L62.58 13.47L64.06 13.47L67.88 19.54L67.88 13.47L69.35 13.47L69.35 22L67.87 22L64.06 15.95L64.06 22ZM79.67 22L74.09 22L74.09 13.47L79.63 13.47L79.63 14.66L75.57 14.66L75.57 17.02L79.07 17.02L79.07 18.19L75.57 18.19L75.57 20.82L79.67 20.82L79.67 22ZM86.32 22L83.86 22L83.86 13.47L86.38 13.47Q87.51 13.47 88.39 13.97Q89.26 14.48 89.74 15.40Q90.22 16.33 90.22 17.52L90.22 17.52L90.22 17.95Q90.22 19.16 89.74 20.08Q89.26 21.00 88.36 21.50Q87.47 22 86.32 22L86.32 22ZM85.34 14.66L85.34 20.82L86.31 20.82Q87.48 20.82 88.10 20.09Q88.72 19.36 88.74 17.99L88.74 17.99L88.74 17.52Q88.74 16.13 88.13 15.40Q87.53 14.66 86.38 14.66L86.38 14.66L85.34 14.66ZM103.78 22L100.67 22L100.67 13.47L103.59 13.47Q105.04 13.47 105.79 14.05Q106.55 14.63 106.55 15.78L106.55 15.78Q106.55 16.36 106.23 16.83Q105.92 17.30 105.31 17.56L105.31 17.56Q106.00 17.75 106.38 18.26Q106.75 18.78 106.75 19.51L106.75 19.51Q106.75 20.71 105.98 21.36Q105.21 22 103.78 22L103.78 22ZM102.15 18.15L102.15 20.82L103.80 20.82Q104.49 20.82 104.89 20.47Q105.28 20.13 105.28 19.51L105.28 19.51Q105.28 18.18 103.92 18.15L103.92 18.15L102.15 18.15ZM102.15 14.66L102.15 17.06L103.60 17.06Q104.29 17.06 104.68 16.75Q105.07 16.43 105.07 15.86L105.07 15.86Q105.07 15.23 104.71 14.95Q104.35 14.66 103.59 14.66L103.59 14.66L102.15 14.66ZM113.26 18.86L110.40 13.47L112.05 13.47L114.01 17.51L115.97 13.47L117.61 13.47L114.75 18.86L114.75 22L113.26 22L113.26 18.86Z" fill="#FFFFFF"/><path class="svg__text" d="M145.00 22L142.57 22L146.28 13.60L148.62 13.60L152.34 22L149.87 22L149.21 20.37L145.66 20.37L145.00 22ZM147.43 15.93L146.35 18.61L148.51 18.61L147.43 15.93ZM162.88 22L156.49 22L156.49 13.60L158.87 13.60L158.87 20.11L162.88 20.11L162.88 22ZM167.23 18.26L167.23 18.26L167.23 13.60L169.61 13.60L169.61 18.19Q169.61 20.20 171.20 20.20L171.20 20.20Q172.78 20.20 172.78 18.19L172.78 18.19L172.78 13.60L175.12 13.60L175.12 18.26Q175.12 20.13 174.08 21.15Q173.04 22.17 171.18 22.17L171.18 22.17Q169.30 22.17 168.26 21.15Q167.23 20.13 167.23 18.26ZM182.59 22L180.21 22L180.21 13.60L184.05 13.60Q185.20 13.60 186.03 13.98Q186.87 14.35 187.33 15.06Q187.79 15.76 187.79 16.71L187.79 16.71Q187.79 17.62 187.36 18.30Q186.93 18.98 186.14 19.36L186.14 19.36L187.95 22L185.41 22L183.88 19.77L182.59 19.77L182.59 22ZM182.59 15.47L182.59 17.93L183.91 17.93Q184.64 17.93 185.01 17.61Q185.38 17.29 185.38 16.71L185.38 16.71Q185.38 16.12 185.01 15.79Q184.64 15.47 183.91 15.47L183.91 15.47L182.59 15.47ZM193.99 22L191.57 22L195.28 13.60L197.62 13.60L201.33 22L198.87 22L198.20 20.37L194.65 20.37L193.99 22ZM196.43 15.93L195.35 18.61L197.51 18.61L196.43 15.93Z" fill="#FFFFFF" x="142.39"/></svg>